<?xml version="1.0" standalone="no"?>
<!DOCTYPE svg PUBLIC "-//W3C//DTD SVG 20010904//EN" "http://www.w3.org/TR/2001/REC-SVG-20010904/DTD/svg10.dtd">
<svg version="1.0" xmlns="http://www.w3.org/2000/svg" width="1024.000000pt" height="10.000000pt"
    viewBox="0 0 1024.000000 10.000000" preserveAspectRatio="xMidYMid meet">

    <g transform="translate(0.000000,10.000000) scale(0.100000,-0.100000)" fill="#000000" stroke="none">
        <path d="M10224 85 c-5 -11 -22 -15 -69 -15 -35 0 -67 -4 -70 -10 -4 -6 21
-10 69 -10 63 0 74 -2 70 -15 -5 -11 -22 -15 -69 -15 -35 0 -67 -5 -70 -10 -4
-6 23 -10 74 -10 l81 0 0 50 c0 50 -6 63 -16 35z" />
    </g>
</svg>